Roman_opsz9_wght700.ufo
<glyph name="exclam" format="2">
  <advance width="360"/>
  <unicode hex="0021"/>
  <outline>
    <contour>
      <point x="255" y="607" type="line" smooth="yes"/>
      <point x="258" y="628"/>
      <point x="258" y="630"/>
      <point x="258" y="634" type="curve" smooth="yes"/>
      <point x="258" y="682"/>
      <point x="215" y="706"/>
      <point x="180" y="706" type="curve" smooth="yes"/>
      <point x="141" y="706"/>
      <point x="101" y="680"/>
      <point x="101" y="634" type="curve" smooth="yes"/>
      <point x="101" y="630"/>
      <point x="101" y="628"/>
      <point x="104" y="607" type="curve" smooth="yes"/>
      <point x="152" y="251" type="line" smooth="yes"/>
      <point x="155" y="228"/>
      <point x="161" y="226"/>
      <point x="179" y="226" type="curve" smooth="yes"/>
      <point x="203" y="226"/>
      <point x="203" y="231"/>
      <point x="206" y="251" type="curve" smooth="yes"/>
    </contour>
    <contour>
      <point x="258" y="78" type="curve" smooth="yes"/>
      <point x="258" y="124"/>
      <point x="221" y="157"/>
      <point x="180" y="157" type="curve" smooth="yes"/>
      <point x="135" y="157"/>
      <point x="101" y="120"/>
      <point x="101" y="79" type="curve" smooth="yes"/>
      <point x="101" y="33"/>
      <point x="138" y="0"/>
      <point x="179" y="0" type="curve" smooth="yes"/>
      <point x="224" y="0"/>
      <point x="258" y="37"/>
    </contour>
  </outline>
</glyph>
<glyph name="five" format="2">
  <advance width="591"/>
  <unicode hex="0035"/>
  <outline>
    <contour>
      <point x="168" y="503" type="line"/>
      <point x="202" y="497"/>
      <point x="218" y="497"/>
      <point x="239" y="497" type="curve" smooth="yes"/>
      <point x="267" y="497"/>
      <point x="331" y="497"/>
      <point x="406" y="547" type="curve" smooth="yes"/>
      <point x="428" y="561"/>
      <point x="486" y="610"/>
      <point x="486" y="636" type="curve" smooth="yes"/>
      <point x="486" y="640"/>
      <point x="486" y="656"/>
      <point x="470" y="656" type="curve" smooth="yes"/>
      <point x="468" y="656"/>
      <point x="466" y="656"/>
      <point x="455" y="651" type="curve"/>
      <point x="404" y="633"/>
      <point x="349" y="624"/>
      <point x="297" y="624" type="curve" smooth="yes"/>
      <point x="235" y="624"/>
      <point x="184" y="636"/>
      <point x="141" y="651" type="curve" smooth="yes"/>
      <point x="128" y="656"/>
      <point x="126" y="656"/>
      <point x="124" y="656" type="curve" smooth="yes"/>
      <point x="109" y="656"/>
      <point x="109" y="643"/>
      <point x="109" y="628" type="curve" smooth="yes"/>
      <point x="109" y="333" type="line" smooth="yes"/>
      <point x="109" y="315"/>
      <point x="109" y="301"/>
      <point x="133" y="301" type="curve" smooth="yes"/>
      <point x="146" y="301"/>
      <point x="148" y="302"/>
      <point x="159" y="315" type="curve" smooth="yes"/>
      <point x="200" y="362"/>
      <point x="255" y="370"/>
      <point x="294" y="370" type="curve" smooth="yes"/>
      <point x="387" y="370"/>
      <point x="387" y="283"/>
      <point x="387" y="204" type="curve" smooth="yes"/>
      <point x="387" y="132"/>
      <point x="387" y="33"/>
      <point x="262" y="33" type="curve" smooth="yes"/>
      <point x="207" y="33"/>
      <point x="159" y="59"/>
      <point x="134" y="91" type="curve"/>
      <point x="176" y="95"/>
      <point x="198" y="124"/>
      <point x="198" y="160" type="curve" smooth="yes"/>
      <point x="198" y="209"/>
      <point x="161" y="230"/>
      <point x="129" y="230" type="curve" smooth="yes"/>
      <point x="98" y="230"/>
      <point x="59" y="211"/>
      <point x="59" y="158" type="curve" smooth="yes"/>
      <point x="59" y="71"/>
      <point x="140" y="-12"/>
      <point x="266" y="-12" type="curve" smooth="yes"/>
      <point x="437" y="-12"/>
      <point x="532" y="83"/>
      <point x="532" y="201" type="curve" smooth="yes"/>
      <point x="532" y="315"/>
      <point x="451" y="410"/>
      <point x="299" y="410" type="curve" smooth="yes"/>
      <point x="253" y="410"/>
      <point x="210" y="402"/>
      <point x="168" y="376" type="curve"/>
    </contour>
  </outline>
</glyph>
<glyph name="C" format="2">
  <advance width="854"/>
  <unicode hex="0043"/>
  <outline>
    <contour>
      <point x="66" y="343" type="curve" smooth="yes"/>
      <point x="66" y="145"/>
      <point x="214" y="-12"/>
      <point x="479" y="-12" type="curve" smooth="yes"/>
      <point x="667" y="-12"/>
      <point x="788" y="108"/>
      <point x="788" y="228" type="curve" smooth="yes"/>
      <point x="788" y="250"/>
      <point x="778" y="250"/>
      <point x="762" y="250" type="curve" smooth="yes"/>
      <point x="751" y="250"/>
      <point x="738" y="250"/>
      <point x="737" y="234" type="curve" smooth="yes"/>
      <point x="729" y="89"/>
      <point x="596" y="37"/>
      <point x="501" y="37" type="curve" smooth="yes"/>
      <point x="447" y="37"/>
      <point x="350" y="48"/>
      <point x="283" y="122" type="curve" smooth="yes"/>
      <point x="230" y="182"/>
      <point x="223" y="275"/>
      <point x="223" y="343" type="curve" smooth="yes"/>
      <point x="223" y="463"/>
      <point x="247" y="523"/>
      <point x="288" y="569" type="curve" smooth="yes"/>
      <point x="335" y="622"/>
      <point x="416" y="649"/>
      <point x="499" y="649" type="curve" smooth="yes"/>
      <point x="587" y="649"/>
      <point x="703" y="596"/>
      <point x="729" y="437" type="curve" smooth="yes"/>
      <point x="731" y="424"/>
      <point x="743" y="424"/>
      <point x="758" y="424" type="curve" smooth="yes"/>
      <point x="785" y="424"/>
      <point x="788" y="426"/>
      <point x="788" y="453" type="curve" smooth="yes"/>
      <point x="788" y="669" type="line" smooth="yes"/>
      <point x="788" y="687"/>
      <point x="788" y="698"/>
      <point x="768" y="698" type="curve" smooth="yes"/>
      <point x="758" y="698"/>
      <point x="756" y="696"/>
      <point x="747" y="688" type="curve" smooth="yes"/>
      <point x="681" y="630" type="line"/>
      <point x="624" y="676"/>
      <point x="551" y="698"/>
      <point x="478" y="698" type="curve" smooth="yes"/>
      <point x="220" y="698"/>
      <point x="66" y="546"/>
    </contour>
  </outline>
</glyph>
<glyph name="D" format="2">
  <advance width="906"/>
  <unicode hex="0044"/>
  <outline>
    <contour>
      <point x="840" y="338" type="curve" smooth="yes"/>
      <point x="840" y="550"/>
      <point x="693" y="686"/>
      <point x="483" y="686" type="curve" smooth="yes"/>
      <point x="42" y="686" type="line"/>
      <point x="42" y="637" type="line"/>
      <point x="150" y="637" type="line"/>
      <point x="150" y="637" type="line"/>
      <point x="150" y="49" type="line"/>
      <point x="150" y="49" type="line"/>
      <point x="42" y="49" type="line"/>
      <point x="42" y="0" type="line"/>
      <point x="484" y="0" type="line" smooth="yes"/>
      <point x="683" y="0"/>
      <point x="840" y="121"/>
    </contour>
    <contour>
      <point x="289" y="49" type="line"/>
      <point x="289" y="49" type="line"/>
      <point x="289" y="637" type="line"/>
      <point x="289" y="637" type="line"/>
      <point x="441" y="637" type="line" smooth="yes"/>
      <point x="520" y="637"/>
      <point x="594" y="612"/>
      <point x="638" y="557" type="curve" smooth="yes"/>
      <point x="682" y="501"/>
      <point x="689" y="430"/>
      <point x="689" y="338" type="curve" smooth="yes"/>
      <point x="689.0" y="275.95104"/>
      <point x="689.0" y="175.02898227199995"/>
      <point x="624.3475077979177" y="110.35635824109158" type="curve" smooth="yes"/>
      <point x="587.9299459072" y="73.9274564608"/>
      <point x="530.99904" y="49.0"/>
      <point x="442" y="49" type="curve" smooth="yes"/>
    </contour>
  </outline>
</glyph>
<glyph name="E" format="2">
  <advance width="776"/>
  <unicode hex="0045"/>
  <outline>
    <contour>
      <point x="743" y="276" type="line"/>
      <point x="692" y="276" type="line"/>
      <point x="670" y="148"/>
      <point x="648" y="49"/>
      <point x="454" y="49" type="curve" smooth="yes"/>
      <point x="295" y="49" type="line"/>
      <point x="295" y="49" type="line"/>
      <point x="295" y="328" type="line"/>
      <point x="353" y="328" type="line" smooth="yes"/>
      <point x="451" y="328"/>
      <point x="461" y="284"/>
      <point x="461" y="211" type="curve"/>
      <point x="512" y="211" type="line"/>
      <point x="512" y="494" type="line"/>
      <point x="461" y="494" type="line"/>
      <point x="461" y="421"/>
      <point x="452" y="377"/>
      <point x="353" y="377" type="curve" smooth="yes"/>
      <point x="295" y="377" type="line"/>
      <point x="295" y="631" type="line"/>
      <point x="295" y="631" type="line"/>
      <point x="453" y="631" type="line" smooth="yes"/>
      <point x="612" y="631"/>
      <point x="643" y="562"/>
      <point x="659" y="437" type="curve"/>
      <point x="710" y="437" type="line"/>
      <point x="679" y="680" type="line"/>
      <point x="42" y="680" type="line"/>
      <point x="42" y="631" type="line"/>
      <point x="150" y="631" type="line"/>
      <point x="150" y="631" type="line"/>
      <point x="150" y="49" type="line"/>
      <point x="150" y="49" type="line"/>
      <point x="42" y="49" type="line"/>
      <point x="42" y="0" type="line"/>
      <point x="696" y="0" type="line"/>
    </contour>
  </outline>
</glyph>
<glyph name="G" format="2">
  <advance width="929"/>
  <unicode hex="0047"/>
  <outline>
    <contour>
      <point x="66" y="343" type="curve" smooth="yes"/>
      <point x="66" y="149"/>
      <point x="210" y="-12"/>
      <point x="480" y="-12" type="curve" smooth="yes"/>
      <point x="511" y="-12"/>
      <point x="565" y="-11"/>
      <point x="613" y="8" type="curve" smooth="yes"/>
      <point x="636" y="17"/>
      <point x="659" y="30"/>
      <point x="676" y="49" type="curve"/>
      <point x="704" y="28"/>
      <point x="765" y="0"/>
      <point x="773" y="0" type="curve" smooth="yes"/>
      <point x="788" y="0"/>
      <point x="788" y="15"/>
      <point x="788" y="29" type="curve" smooth="yes"/>
      <point x="788" y="228" type="line"/>
      <point x="788" y="228" type="line"/>
      <point x="870" y="228" type="line"/>
      <point x="870" y="277" type="line"/>
      <point x="831" y="274"/>
      <point x="744" y="274"/>
      <point x="701" y="274" type="curve" smooth="yes"/>
      <point x="651" y="274"/>
      <point x="539" y="274"/>
      <point x="495" y="277" type="curve"/>
      <point x="495" y="228" type="line"/>
      <point x="643" y="228" type="line"/>
      <point x="643" y="228" type="line"/>
      <point x="643" y="128" type="line" smooth="yes"/>
      <point x="643" y="107"/>
      <point x="643" y="78"/>
      <point x="600" y="56" type="curve" smooth="yes"/>
      <point x="574" y="43"/>
      <point x="540" y="37"/>
      <point x="507" y="37" type="curve" smooth="yes"/>
      <point x="453" y="37"/>
      <point x="353" y="47"/>
      <point x="283" y="124" type="curve" smooth="yes"/>
      <point x="224" y="190"/>
      <point x="223" y="301"/>
      <point x="223" y="344" type="curve" smooth="yes"/>
      <point x="223" y="419"/>
      <point x="232" y="513"/>
      <point x="292" y="574" type="curve" smooth="yes"/>
      <point x="360" y="642"/>
      <point x="456" y="649"/>
      <point x="499" y="649" type="curve" smooth="yes"/>
      <point x="587" y="649"/>
      <point x="703" y="596"/>
      <point x="729" y="437" type="curve" smooth="yes"/>
      <point x="731" y="424"/>
      <point x="743" y="424"/>
      <point x="758" y="424" type="curve" smooth="yes"/>
      <point x="785" y="424"/>
      <point x="788" y="426"/>
      <point x="788" y="453" type="curve" smooth="yes"/>
      <point x="788" y="669" type="line" smooth="yes"/>
      <point x="788" y="687"/>
      <point x="788" y="698"/>
      <point x="768" y="698" type="curve" smooth="yes"/>
      <point x="758" y="698"/>
      <point x="756" y="696"/>
      <point x="747" y="688" type="curve" smooth="yes"/>
      <point x="681" y="630" type="line"/>
      <point x="624" y="676"/>
      <point x="551" y="698"/>
      <point x="478" y="698" type="curve" smooth="yes"/>
      <point x="220" y="698"/>
      <point x="66" y="546"/>
    </contour>
  </outline>
</glyph>
<glyph name="H" format="2">
  <advance width="924"/>
  <unicode hex="0048"/>
  <outline>
    <contour>
      <point x="42" y="0" type="line"/>
      <point x="77" y="3"/>
      <point x="181" y="3"/>
      <point x="222" y="3" type="curve" smooth="yes"/>
      <point x="263" y="3"/>
      <point x="368" y="3"/>
      <point x="403" y="0" type="curve"/>
      <point x="403" y="49" type="line"/>
      <point x="295" y="49" type="line"/>
      <point x="295" y="49" type="line"/>
      <point x="295" y="332" type="line"/>
      <point x="628" y="332" type="line"/>
      <point x="628" y="49" type="line"/>
      <point x="628" y="49" type="line"/>
      <point x="520" y="49" type="line"/>
      <point x="520" y="0" type="line"/>
      <point x="555" y="3"/>
      <point x="659" y="3"/>
      <point x="700" y="3" type="curve" smooth="yes"/>
      <point x="741" y="3"/>
      <point x="846" y="3"/>
      <point x="881" y="0" type="curve"/>
      <point x="881" y="49" type="line"/>
      <point x="773" y="49" type="line"/>
      <point x="773" y="49" type="line"/>
      <point x="773" y="637" type="line"/>
      <point x="773" y="637" type="line"/>
      <point x="881" y="637" type="line"/>
      <point x="881" y="686" type="line"/>
      <point x="846" y="683"/>
      <point x="742" y="683"/>
      <point x="701" y="683" type="curve" smooth="yes"/>
      <point x="660" y="683"/>
      <point x="555" y="683"/>
      <point x="520" y="686" type="curve"/>
      <point x="520" y="637" type="line"/>
      <point x="628" y="637" type="line"/>
      <point x="628" y="637" type="line"/>
      <point x="628" y="381" type="line"/>
      <point x="295" y="381" type="line"/>
      <point x="295" y="637" type="line"/>
      <point x="295" y="637" type="line"/>
      <point x="403" y="637" type="line"/>
      <point x="403" y="686" type="line"/>
      <point x="368" y="683"/>
      <point x="264" y="683"/>
      <point x="223" y="683" type="curve" smooth="yes"/>
      <point x="182" y="683"/>
      <point x="77" y="683"/>
      <point x="42" y="686" type="curve"/>
      <point x="42" y="637" type="line"/>
      <point x="150" y="637" type="line"/>
      <point x="150" y="637" type="line"/>
      <point x="150" y="49" type="line"/>
      <point x="150" y="49" type="line"/>
      <point x="42" y="49" type="line"/>
    </contour>
  </outline>
</glyph>
<glyph name="R" format="2">
  <advance width="886"/>
  <unicode hex="0052"/>
  <outline>
    <contour>
      <point x="571" y="339" type="curve"/>
      <point x="656" y="363"/>
      <point x="738" y="416"/>
      <point x="738" y="500" type="curve" smooth="yes"/>
      <point x="738" y="605"/>
      <point x="620" y="686"/>
      <point x="431" y="686" type="curve" smooth="yes"/>
      <point x="42" y="686" type="line"/>
      <point x="42" y="637" type="line"/>
      <point x="150" y="637" type="line"/>
      <point x="150" y="637" type="line"/>
      <point x="150" y="49" type="line"/>
      <point x="150" y="49" type="line"/>
      <point x="42" y="49" type="line"/>
      <point x="42" y="0" type="line"/>
      <point x="78" y="3"/>
      <point x="178" y="3"/>
      <point x="219" y="3" type="curve" smooth="yes"/>
      <point x="260" y="3"/>
      <point x="361" y="3"/>
      <point x="397" y="0" type="curve"/>
      <point x="397" y="49" type="line"/>
      <point x="289" y="49" type="line"/>
      <point x="289" y="49" type="line"/>
      <point x="289" y="323" type="line"/>
      <point x="412" y="323" type="line" smooth="yes"/>
      <point x="453" y="323"/>
      <point x="480" y="314"/>
      <point x="509" y="284" type="curve" smooth="yes"/>
      <point x="537" y="256"/>
      <point x="537" y="232"/>
      <point x="537" y="165" type="curve" smooth="yes"/>
      <point x="537" y="102"/>
      <point x="537" y="55"/>
      <point x="597" y="20" type="curve" smooth="yes"/>
      <point x="641" y="-5"/>
      <point x="704" y="-12"/>
      <point x="759" y="-12" type="curve" smooth="yes"/>
      <point x="866" y="-12"/>
      <point x="883" y="75"/>
      <point x="883" y="97" type="curve" smooth="yes"/>
      <point x="883" y="119"/>
      <point x="868" y="121"/>
      <point x="857" y="121" type="curve" smooth="yes"/>
      <point x="834" y="121"/>
      <point x="833" y="107"/>
      <point x="832" y="97" type="curve" smooth="yes"/>
      <point x="827" y="48"/>
      <point x="796" y="28"/>
      <point x="768" y="28" type="curve" smooth="yes"/>
      <point x="725" y="28"/>
      <point x="708" y="60"/>
      <point x="698" y="110" type="curve" smooth="yes"/>
      <point x="694" y="129"/>
      <point x="691" y="150"/>
      <point x="688" y="174" type="curve" smooth="yes"/>
      <point x="677" y="248"/>
      <point x="670" y="302"/>
    </contour>
    <contour>
      <point x="289" y="363" type="line"/>
      <point x="289" y="637" type="line"/>
      <point x="289" y="637" type="line"/>
      <point x="415" y="637" type="line" smooth="yes"/>
      <point x="578" y="637"/>
      <point x="581" y="560"/>
      <point x="581" y="500" type="curve" smooth="yes"/>
      <point x="581" y="443"/>
      <point x="579" y="363"/>
      <point x="413" y="363" type="curve" smooth="yes"/>
    </contour>
  </outline>
</glyph>
<glyph name="T" format="2">
  <advance width="823"/>
  <unicode hex="0054"/>
  <outline>
    <contour>
      <point x="757" y="674" type="line"/>
      <point x="65" y="674" type="line"/>
      <point x="43" y="431" type="line"/>
      <point x="94" y="431" type="line"/>
      <point x="104" y="542"/>
      <point x="113" y="625"/>
      <point x="260" y="625" type="curve" smooth="yes"/>
      <point x="339" y="625" type="line"/>
      <point x="339" y="625" type="line"/>
      <point x="339" y="49" type="line"/>
      <point x="339" y="49" type="line"/>
      <point x="186" y="49" type="line"/>
      <point x="186" y="0" type="line"/>
      <point x="230" y="3"/>
      <point x="360" y="3"/>
      <point x="412" y="3" type="curve" smooth="yes"/>
      <point x="464" y="3"/>
      <point x="593" y="3"/>
      <point x="637" y="0" type="curve"/>
      <point x="637" y="49" type="line"/>
      <point x="484" y="49" type="line"/>
      <point x="484" y="49" type="line"/>
      <point x="484" y="625" type="line"/>
      <point x="484" y="625" type="line"/>
      <point x="563" y="625" type="line" smooth="yes"/>
      <point x="710" y="625"/>
      <point x="718" y="540"/>
      <point x="728" y="431" type="curve"/>
      <point x="779" y="431" type="line"/>
    </contour>
  </outline>
</glyph>
<glyph name="U" format="2">
  <advance width="908"/>
  <unicode hex="0055"/>
  <outline>
    <contour>
      <point x="758" y="608" type="line" smooth="yes"/>
      <point x="758" y="630"/>
      <point x="759" y="631"/>
      <point x="787" y="634" type="curve" smooth="yes"/>
      <point x="811" y="637"/>
      <point x="813" y="637"/>
      <point x="840" y="637" type="curve" smooth="yes"/>
      <point x="866" y="637" type="line"/>
      <point x="866" y="686" type="line"/>
      <point x="804" y="683"/>
      <point x="775" y="683"/>
      <point x="729" y="683" type="curve" smooth="yes"/>
      <point x="689" y="683"/>
      <point x="658" y="683"/>
      <point x="591" y="686" type="curve"/>
      <point x="591" y="637" type="line"/>
      <point x="617" y="637" type="line" smooth="yes"/>
      <point x="644" y="637"/>
      <point x="646" y="637"/>
      <point x="670" y="634" type="curve" smooth="yes"/>
      <point x="698" y="631"/>
      <point x="699" y="630"/>
      <point x="699" y="608" type="curve" smooth="yes"/>
      <point x="699" y="232" type="line" smooth="yes"/>
      <point x="699" y="95"/>
      <point x="599" y="37"/>
      <point x="477" y="37" type="curve" smooth="yes"/>
      <point x="297" y="37"/>
      <point x="295" y="170"/>
      <point x="295" y="224" type="curve" smooth="yes"/>
      <point x="295" y="637" type="line"/>
      <point x="403" y="637" type="line"/>
      <point x="403" y="686" type="line"/>
      <point x="368" y="683"/>
      <point x="264" y="683"/>
      <point x="223" y="683" type="curve" smooth="yes"/>
      <point x="182" y="683"/>
      <point x="77" y="683"/>
      <point x="42" y="686" type="curve"/>
      <point x="42" y="637" type="line"/>
      <point x="150" y="637" type="line"/>
      <point x="150" y="231" type="line" smooth="yes"/>
      <point x="150" y="99"/>
      <point x="260" y="-12"/>
      <point x="473" y="-12" type="curve" smooth="yes"/>
      <point x="669" y="-12"/>
      <point x="758" y="104"/>
      <point x="758" y="230" type="curve" smooth="yes"/>
    </contour>
  </outline>
</glyph>
<glyph name="W" format="2">
  <advance width="1221"/>
  <unicode hex="0057"/>
  <outline>
    <contour>
      <point x="441" y="180" type="line"/>
      <point x="261" y="637" type="line"/>
      <point x="261" y="637" type="line"/>
      <point x="356" y="637" type="line"/>
      <point x="356" y="686" type="line"/>
      <point x="321" y="683"/>
      <point x="223" y="683"/>
      <point x="182" y="683" type="curve" smooth="yes"/>
      <point x="135" y="683"/>
      <point x="71" y="683"/>
      <point x="26" y="686" type="curve"/>
      <point x="26" y="637" type="line"/>
      <point x="111" y="637" type="line"/>
      <point x="111" y="637" type="line"/>
      <point x="356" y="19" type="line" smooth="yes"/>
      <point x="363" y="2"/>
      <point x="367" y="-9"/>
      <point x="394" y="-9" type="curve" smooth="yes"/>
      <point x="421" y="-9"/>
      <point x="426" y="3"/>
      <point x="432" y="19" type="curve" smooth="yes"/>
      <point x="610" y="470" type="line"/>
      <point x="789" y="19" type="line" smooth="yes"/>
      <point x="795" y="3"/>
      <point x="800" y="-9"/>
      <point x="827" y="-9" type="curve" smooth="yes"/>
      <point x="840" y="-9"/>
      <point x="854" y="-6"/>
      <point x="860" y="5" type="curve"/>
      <point x="1101" y="614" type="line" smooth="yes"/>
      <point x="1108" y="631"/>
      <point x="1109" y="635"/>
      <point x="1153" y="636" type="curve" smooth="yes"/>
      <point x="1195" y="637" type="line"/>
      <point x="1195" y="686" type="line"/>
      <point x="1146" y="683"/>
      <point x="1110" y="683"/>
      <point x="1084" y="683" type="curve" smooth="yes"/>
      <point x="1040" y="683"/>
      <point x="993" y="683"/>
      <point x="949" y="686" type="curve"/>
      <point x="949" y="637" type="line"/>
      <point x="975" y="637"/>
      <point x="1021" y="637"/>
      <point x="1050" y="626" type="curve"/>
      <point x="1050" y="626" type="line"/>
      <point x="874" y="180" type="line"/>
      <point x="694" y="637" type="line"/>
      <point x="694" y="637" type="line"/>
      <point x="789" y="637" type="line"/>
      <point x="789" y="686" type="line"/>
      <point x="754" y="683"/>
      <point x="656" y="683"/>
      <point x="615" y="683" type="curve" smooth="yes"/>
      <point x="568" y="683"/>
      <point x="504" y="683"/>
      <point x="459" y="686" type="curve"/>
      <point x="459" y="637" type="line"/>
      <point x="544" y="637" type="line"/>
      <point x="544" y="637" type="line"/>
      <point x="583" y="539" type="line"/>
    </contour>
  </outline>
</glyph>
<glyph name="X" format="2">
  <advance width="892"/>
  <unicode hex="0058"/>
  <outline>
    <contour>
      <point x="499" y="394" type="line"/>
      <point x="672" y="616" type="line" smooth="yes"/>
      <point x="689" y="638"/>
      <point x="707" y="637"/>
      <point x="777" y="637" type="curve" smooth="yes"/>
      <point x="805" y="637" type="line"/>
      <point x="805" y="686" type="line"/>
      <point x="726" y="683"/>
      <point x="698" y="683"/>
      <point x="667" y="683" type="curve" smooth="yes"/>
      <point x="627" y="683"/>
      <point x="552" y="683"/>
      <point x="515" y="686" type="curve"/>
      <point x="515" y="637" type="line"/>
      <point x="531" y="637"/>
      <point x="571" y="637"/>
      <point x="604" y="626" type="curve"/>
      <point x="603" y="624"/>
      <point x="601" y="621"/>
      <point x="596" y="615" type="curve" smooth="yes"/>
      <point x="462" y="443" type="line"/>
      <point x="317" y="637" type="line"/>
      <point x="317" y="637" type="line"/>
      <point x="398" y="637" type="line"/>
      <point x="398" y="686" type="line"/>
      <point x="363" y="683"/>
      <point x="259" y="683"/>
      <point x="218" y="683" type="curve" smooth="yes"/>
      <point x="176" y="683"/>
      <point x="90" y="683"/>
      <point x="53" y="686" type="curve"/>
      <point x="53" y="637" type="line"/>
      <point x="151" y="637" type="line"/>
      <point x="151" y="637" type="line"/>
      <point x="377" y="335" type="line"/>
      <point x="170" y="68" type="line" smooth="yes"/>
      <point x="158" y="52"/>
      <point x="123" y="49"/>
      <point x="66" y="49" type="curve" smooth="yes"/>
      <point x="37" y="49" type="line"/>
      <point x="37" y="0" type="line"/>
      <point x="110" y="3"/>
      <point x="118" y="3"/>
      <point x="175" y="3" type="curve" smooth="yes"/>
      <point x="216" y="3"/>
      <point x="290" y="3"/>
      <point x="328" y="0" type="curve"/>
      <point x="328" y="49" type="line"/>
      <point x="312" y="49"/>
      <point x="271" y="49"/>
      <point x="239" y="60" type="curve"/>
      <point x="240" y="62"/>
      <point x="244" y="67"/>
      <point x="247" y="71" type="curve" smooth="yes"/>
      <point x="414" y="286" type="line"/>
      <point x="591" y="49" type="line"/>
      <point x="591" y="49" type="line"/>
      <point x="510" y="49" type="line"/>
      <point x="510" y="0" type="line"/>
      <point x="546" y="3"/>
      <point x="648" y="3"/>
      <point x="690" y="3" type="curve" smooth="yes"/>
      <point x="731" y="3"/>
      <point x="819" y="3"/>
      <point x="856" y="0" type="curve"/>
      <point x="856" y="49" type="line"/>
      <point x="758" y="49" type="line"/>
      <point x="758" y="49" type="line"/>
    </contour>
  </outline>
</glyph>
<glyph name="d" format="2">
  <advance width="657"/>
  <unicode hex="0064"/>
  <outline>
    <contour>
      <point x="430" y="44" type="curve"/>
      <point x="430" y="-6" type="line"/>
      <point x="615" y="0" type="line"/>
      <point x="615" y="49" type="line"/>
      <point x="555" y="49"/>
      <point x="547" y="49"/>
      <point x="547" y="88" type="curve" smooth="yes"/>
      <point x="547" y="694" type="line"/>
      <point x="368" y="686" type="line"/>
      <point x="368" y="637" type="line"/>
      <point x="428" y="637"/>
      <point x="436" y="637"/>
      <point x="436" y="598" type="curve" smooth="yes"/>
      <point x="436" y="405" type="line"/>
      <point x="392" y="437"/>
      <point x="345" y="450"/>
      <point x="297" y="450" type="curve" smooth="yes"/>
      <point x="134" y="450"/>
      <point x="39" y="351"/>
      <point x="39" y="222" type="curve" smooth="yes"/>
      <point x="39" y="89"/>
      <point x="133" y="-6"/>
      <point x="285" y="-6" type="curve" smooth="yes"/>
      <point x="348" y="-6"/>
      <point x="398" y="18"/>
    </contour>
    <contour>
      <point x="172" y="220" type="curve" smooth="yes"/>
      <point x="172" y="278"/>
      <point x="173" y="321"/>
      <point x="199" y="358" type="curve" smooth="yes"/>
      <point x="225" y="398"/>
      <point x="273" y="410"/>
      <point x="308" y="410" type="curve" smooth="yes"/>
      <point x="358" y="410"/>
      <point x="399" y="388"/>
      <point x="430" y="349" type="curve"/>
      <point x="430" y="349" type="line"/>
      <point x="430" y="109" type="line"/>
      <point x="430" y="109" type="line"/>
      <point x="408" y="74"/>
      <point x="360" y="34"/>
      <point x="296" y="34" type="curve" smooth="yes"/>
      <point x="256.99952" y="34.0"/>
      <point x="230.26547096960002" y="45.870739648000004"/>
      <point x="211.9398150402414" y="64.198520644571" type="curve" smooth="yes"/>
      <point x="172.0" y="104.1429671584"/>
      <point x="172.0" y="174.75832"/>
    </contour>
  </outline>
</glyph>
<glyph name="g" format="2">
  <advance width="591"/>
  <unicode hex="0067"/>
  <outline>
    <contour>
      <point x="295" y="-201" type="curve" smooth="yes"/>
      <point x="470" y="-201"/>
      <point x="558" y="-146"/>
      <point x="558" y="-70" type="curve" smooth="yes"/>
      <point x="558" y="-35"/>
      <point x="545" y="27"/>
      <point x="476" y="59" type="curve" smooth="yes"/>
      <point x="418" y="85"/>
      <point x="365" y="85"/>
      <point x="266" y="85" type="curve" smooth="yes"/>
      <point x="193" y="85" type="line" smooth="yes"/>
      <point x="153" y="85"/>
      <point x="130" y="115"/>
      <point x="130" y="148" type="curve" smooth="yes"/>
      <point x="130" y="168"/>
      <point x="137" y="178"/>
      <point x="138" y="179" type="curve"/>
      <point x="175" y="160"/>
      <point x="219" y="153"/>
      <point x="263" y="153" type="curve" smooth="yes"/>
      <point x="416" y="153"/>
      <point x="468" y="236"/>
      <point x="468" y="301" type="curve" smooth="yes"/>
      <point x="468" y="342"/>
      <point x="449" y="375"/>
      <point x="428" y="396" type="curve"/>
      <point x="455" y="410"/>
      <point x="475" y="412"/>
      <point x="488" y="414" type="curve"/>
      <point x="487" y="410"/>
      <point x="485" y="404"/>
      <point x="485" y="394" type="curve" smooth="yes"/>
      <point x="485" y="367"/>
      <point x="506" y="349"/>
      <point x="530" y="349" type="curve" smooth="yes"/>
      <point x="552" y="349"/>
      <point x="575" y="365"/>
      <point x="575" y="395" type="curve" smooth="yes"/>
      <point x="575" y="421"/>
      <point x="555" y="456"/>
      <point x="509" y="456" type="curve" smooth="yes"/>
      <point x="460" y="456"/>
      <point x="418" y="432"/>
      <point x="399" y="418" type="curve"/>
      <point x="357" y="443"/>
      <point x="311" y="450"/>
      <point x="263" y="450" type="curve" smooth="yes"/>
      <point x="110" y="450"/>
      <point x="58" y="367"/>
      <point x="58" y="302" type="curve" smooth="yes"/>
      <point x="58" y="247"/>
      <point x="92" y="211"/>
      <point x="110" y="196" type="curve"/>
      <point x="89" y="173"/>
      <point x="77" y="139"/>
      <point x="77" y="109" type="curve" smooth="yes"/>
      <point x="77" y="66"/>
      <point x="98" y="32"/>
      <point x="119" y="13" type="curve"/>
      <point x="43" y="-8"/>
      <point x="33" y="-51"/>
      <point x="33" y="-73" type="curve" smooth="yes"/>
      <point x="33" y="-133"/>
      <point x="102" y="-201"/>
    </contour>
    <contour>
      <point x="263" y="193" type="curve" smooth="yes"/>
      <point x="173" y="193"/>
      <point x="173" y="257"/>
      <point x="173" y="301" type="curve" smooth="yes"/>
      <point x="173.0" y="329.49985"/>
      <point x="173.0" y="365.6207308891"/>
      <point x="195.86297233523334" y="388.27790151369595" type="curve" smooth="yes"/>
      <point x="209.099620001" y="401.39539911040004"/>
      <point x="229.99970000000002" y="410.00000000000006"/>
      <point x="263" y="410" type="curve" smooth="yes"/>
      <point x="353" y="410"/>
      <point x="353" y="346"/>
      <point x="353" y="302" type="curve" smooth="yes"/>
      <point x="353.0" y="273.0002"/>
      <point x="353.0" y="236.1096446416"/>
      <point x="328.9125971323654" y="213.54227212495186" type="curve" smooth="yes"/>
      <point x="315.622737776" y="201.0910664704"/>
      <point x="295.0004" y="193.0"/>
    </contour>
    <contour>
      <point x="296" y="-161" type="curve" smooth="yes"/>
      <point x="164" y="-161"/>
      <point x="122" y="-111"/>
      <point x="122" y="-72" type="curve" smooth="yes"/>
      <point x="122.0" y="-54.379599999999996"/>
      <point x="127.90684416" y="-42.11227752"/>
      <point x="136.55211973146402" y="-33.571767609424" type="curve" smooth="yes"/>
      <point x="156.36397244000003" y="-14.000000000000004"/>
      <point x="190.55700000000002" y="-14.000000000000004"/>
      <point x="201" y="-14" type="curve" smooth="yes"/>
      <point x="322" y="-14" type="line" smooth="yes"/>
      <point x="353" y="-14"/>
      <point x="469" y="-14"/>
      <point x="469" y="-74" type="curve" smooth="yes"/>
      <point x="469" y="-106"/>
      <point x="432" y="-161"/>
    </contour>
  </outline>
</glyph>
<glyph name="m" format="2">
  <advance width="986"/>
  <unicode hex="006D"/>
  <outline>
    <contour>
      <point x="118" y="49" type="line"/>
      <point x="50" y="49" type="line"/>
      <point x="50" y="49" type="line"/>
      <point x="50" y="0" type="line"/>
      <point x="124" y="3"/>
      <point x="136" y="3"/>
      <point x="176" y="3" type="curve" smooth="yes"/>
      <point x="217" y="3"/>
      <point x="227" y="3"/>
      <point x="303" y="0" type="curve"/>
      <point x="303" y="49" type="line"/>
      <point x="303" y="49" type="line"/>
      <point x="235" y="49" type="line"/>
      <point x="235" y="254" type="line" smooth="yes"/>
      <point x="235" y="365"/>
      <point x="327" y="410"/>
      <point x="387" y="410" type="curve" smooth="yes"/>
      <point x="425" y="410"/>
      <point x="446" y="390"/>
      <point x="446" y="314" type="curve" smooth="yes"/>
      <point x="446" y="49" type="line"/>
      <point x="378" y="49" type="line"/>
      <point x="378" y="49" type="line"/>
      <point x="378" y="0" type="line"/>
      <point x="452" y="3"/>
      <point x="464" y="3"/>
      <point x="504" y="3" type="curve" smooth="yes"/>
      <point x="545" y="3"/>
      <point x="555" y="3"/>
      <point x="631" y="0" type="curve"/>
      <point x="631" y="49" type="line"/>
      <point x="631" y="49" type="line"/>
      <point x="563" y="49" type="line"/>
      <point x="563" y="254" type="line" smooth="yes"/>
      <point x="563" y="365"/>
      <point x="655" y="410"/>
      <point x="715" y="410" type="curve" smooth="yes"/>
      <point x="753" y="410"/>
      <point x="774" y="390"/>
      <point x="774" y="314" type="curve" smooth="yes"/>
      <point x="774" y="49" type="line"/>
      <point x="706" y="49" type="line"/>
      <point x="706" y="49" type="line"/>
      <point x="706" y="0" type="line"/>
      <point x="780" y="3"/>
      <point x="792" y="3"/>
      <point x="832" y="3" type="curve" smooth="yes"/>
      <point x="873" y="3"/>
      <point x="883" y="3"/>
      <point x="959" y="0" type="curve"/>
      <point x="959" y="49" type="line"/>
      <point x="959" y="49" type="line"/>
      <point x="891" y="49" type="line"/>
      <point x="891" y="305" type="line" smooth="yes"/>
      <point x="891.0" y="356.20727999999997"/>
      <point x="877.6291890064" y="390.27732337439994"/>
      <point x="855.3006578008093" y="412.4404599384407" type="curve" smooth="yes"/>
      <point x="826.1762182128001" y="441.3491653968"/>
      <point x="781.8115200000001" y="450.0"/>
      <point x="732" y="450" type="curve" smooth="yes"/>
      <point x="628" y="450"/>
      <point x="577" y="387"/>
      <point x="558" y="356" type="curve"/>
      <point x="536" y="446"/>
      <point x="448" y="450"/>
      <point x="404" y="450" type="curve" smooth="yes"/>
      <point x="280" y="450"/>
      <point x="231" y="360"/>
      <point x="224" y="345" type="curve"/>
      <point x="223" y="345" type="line"/>
      <point x="223" y="450" type="line"/>
      <point x="50" y="442" type="line"/>
      <point x="50" y="393" type="line"/>
      <point x="110" y="393"/>
      <point x="118" y="393"/>
      <point x="118" y="354" type="curve" smooth="yes"/>
    </contour>
  </outline>
</glyph>
<glyph name="o" format="2">
  <advance width="591"/>
  <unicode hex="006F"/>
  <outline>
    <contour>
      <point x="558" y="218" type="curve" smooth="yes"/>
      <point x="558" y="349"/>
      <point x="466" y="453"/>
      <point x="296" y="453" type="curve" smooth="yes"/>
      <point x="120" y="453"/>
      <point x="33" y="344"/>
      <point x="33" y="218" type="curve" smooth="yes"/>
      <point x="33" y="94"/>
      <point x="123" y="-6"/>
      <point x="295" y="-6" type="curve" smooth="yes"/>
      <point x="474" y="-6"/>
      <point x="558" y="99"/>
    </contour>
    <contour>
      <point x="296" y="37" type="curve" smooth="yes"/>
      <point x="252.0002" y="37.0"/>
      <point x="222.892572308" y="49.028293018"/>
      <point x="203.6367122846343" y="68.31588081829247" type="curve" smooth="yes"/>
      <point x="166.0" y="106.01460691119999"/>
      <point x="166.0" y="171.44601999999998"/>
      <point x="166" y="229" type="curve" smooth="yes"/>
      <point x="166.0" y="283.69744000000003"/>
      <point x="166.0" y="345.17902952960003"/>
      <point x="201.61663238703557" y="381.41740923301603" type="curve" smooth="yes"/>
      <point x="220.6972055824" y="400.83106544000003"/>
      <point x="249.99964" y="413.0"/>
      <point x="295" y="413" type="curve" smooth="yes"/>
      <point x="339.9995" y="413.0"/>
      <point x="369.422423075" y="401.01801775"/>
      <point x="388.6606013275888" y="381.8652265107715" type="curve" smooth="yes"/>
      <point x="425.0" y="345.68711716"/>
      <point x="425.0" y="283.9234"/>
      <point x="425" y="229" type="curve" smooth="yes"/>
      <point x="425.0" y="171.66638"/>
      <point x="425.0" y="105.44378222200001"/>
      <point x="386.7772044415778" y="67.66610000213333" type="curve" smooth="yes"/>
      <point x="367.6660933319" y="48.77754222340002"/>
      <point x="338.99957" y="37.00000000000002"/>
    </contour>
  </outline>
</glyph>
<glyph name="p" format="2">
  <advance width="657"/>
  <unicode hex="0070"/>
  <outline>
    <contour>
      <point x="41" y="393" type="line"/>
      <point x="41" y="393" type="line"/>
      <point x="105" y="393"/>
      <point x="109" y="391"/>
      <point x="109" y="355" type="curve" smooth="yes"/>
      <point x="109" y="-145" type="line"/>
      <point x="41" y="-145" type="line"/>
      <point x="41" y="-145" type="line"/>
      <point x="41" y="-194" type="line"/>
      <point x="115" y="-191"/>
      <point x="127" y="-191"/>
      <point x="167" y="-191" type="curve" smooth="yes"/>
      <point x="208" y="-191"/>
      <point x="218" y="-191"/>
      <point x="294" y="-194" type="curve"/>
      <point x="294" y="-145" type="line"/>
      <point x="226" y="-145" type="line"/>
      <point x="226" y="39" type="line"/>
      <point x="285" y="-6"/>
      <point x="340" y="-6"/>
      <point x="359" y="-6" type="curve" smooth="yes"/>
      <point x="516" y="-6"/>
      <point x="617" y="89"/>
      <point x="617" y="222" type="curve" smooth="yes"/>
      <point x="617" y="354"/>
      <point x="526" y="450"/>
      <point x="375" y="450" type="curve" smooth="yes"/>
      <point x="294" y="450"/>
      <point x="239" y="416"/>
      <point x="220" y="402" type="curve"/>
      <point x="220" y="450" type="line"/>
      <point x="41" y="442" type="line"/>
    </contour>
    <contour>
      <point x="484" y="223" type="curve" smooth="yes"/>
      <point x="484" y="84"/>
      <point x="413" y="34"/>
      <point x="347" y="34" type="curve" smooth="yes"/>
      <point x="296" y="34"/>
      <point x="253" y="63"/>
      <point x="226" y="104" type="curve"/>
      <point x="226" y="104" type="line"/>
      <point x="226" y="345" type="line"/>
      <point x="226" y="345" type="line"/>
      <point x="244" y="367"/>
      <point x="291" y="407"/>
      <point x="359" y="407" type="curve" smooth="yes"/>
      <point x="429" y="407"/>
      <point x="484" y="345"/>
    </contour>
  </outline>
</glyph>
<glyph name="r" format="2">
  <advance width="488"/>
  <unicode hex="0072"/>
  <outline>
    <contour>
      <point x="220" y="218" type="line" smooth="yes"/>
      <point x="220" y="291"/>
      <point x="247" y="407"/>
      <point x="344" y="410" type="curve"/>
      <point x="333" y="399"/>
      <point x="328" y="382"/>
      <point x="328" y="366" type="curve" smooth="yes"/>
      <point x="328" y="322"/>
      <point x="363" y="302"/>
      <point x="391" y="302" type="curve" smooth="yes"/>
      <point x="423" y="302"/>
      <point x="455" y="324"/>
      <point x="455" y="366" type="curve" smooth="yes"/>
      <point x="455" y="417"/>
      <point x="403" y="450"/>
      <point x="344" y="450" type="curve" smooth="yes"/>
      <point x="274" y="450"/>
      <point x="231" y="399"/>
      <point x="209" y="341" type="curve"/>
      <point x="208" y="341" type="line"/>
      <point x="208" y="450" type="line"/>
      <point x="41" y="442" type="line"/>
      <point x="41" y="393" type="line"/>
      <point x="101" y="393"/>
      <point x="109" y="393"/>
      <point x="109" y="354" type="curve" smooth="yes"/>
      <point x="109" y="49" type="line"/>
      <point x="41" y="49" type="line"/>
      <point x="41" y="0" type="line"/>
      <point x="115" y="3"/>
      <point x="121" y="3"/>
      <point x="169" y="3" type="curve" smooth="yes"/>
      <point x="194" y="3"/>
      <point x="252" y="3"/>
      <point x="305" y="0" type="curve"/>
      <point x="305" y="49" type="line"/>
      <point x="220" y="49" type="line"/>
    </contour>
  </outline>
</glyph>
<glyph name="s" format="2">
  <advance width="466"/>
  <unicode hex="0073"/>
  <outline>
    <contour>
      <point x="427" y="140" type="curve" smooth="yes"/>
      <point x="427" y="191"/>
      <point x="398" y="223"/>
      <point x="380" y="238" type="curve" smooth="yes"/>
      <point x="335" y="276"/>
      <point x="303" y="281"/>
      <point x="224" y="294" type="curve" smooth="yes"/>
      <point x="176" y="302"/>
      <point x="113" y="312"/>
      <point x="113" y="357" type="curve" smooth="yes"/>
      <point x="113" y="417"/>
      <point x="206" y="417"/>
      <point x="228" y="417" type="curve" smooth="yes"/>
      <point x="340" y="417"/>
      <point x="344" y="358"/>
      <point x="346" y="331" type="curve" smooth="yes"/>
      <point x="347" y="317"/>
      <point x="361" y="317"/>
      <point x="371" y="317" type="curve" smooth="yes"/>
      <point x="396" y="317"/>
      <point x="397" y="322"/>
      <point x="397" y="346" type="curve" smooth="yes"/>
      <point x="397" y="424" type="line" smooth="yes"/>
      <point x="397" y="442"/>
      <point x="397" y="453"/>
      <point x="377" y="453" type="curve" smooth="yes"/>
      <point x="367" y="453"/>
      <point x="351" y="445"/>
      <point x="333" y="435" type="curve"/>
      <point x="333" y="435" type="line"/>
      <point x="301" y="449"/>
      <point x="262" y="453"/>
      <point x="229" y="453" type="curve" smooth="yes"/>
      <point x="198" y="453"/>
      <point x="39" y="453"/>
      <point x="39" y="321" type="curve" smooth="yes"/>
      <point x="39.0" y="282.41565"/>
      <point x="56.689480317900006" y="255.03913867470004"/>
      <point x="80.80446991202788" y="235.54585783118355" type="curve" smooth="yes"/>
      <point x="122.31385671360002" y="201.9918672144"/>
      <point x="182.86145000000002" y="191.79518000000002"/>
      <point x="205" y="188" type="curve" smooth="yes"/>
      <point x="258.74362" y="178.82426"/>
      <point x="305.61424371040005" y="170.93720680430002"/>
      <point x="331.534900824429" y="150.54340951226436" type="curve" smooth="yes"/>
      <point x="345.1630103054" y="139.8211156674"/>
      <point x="353.0" y="125.64162999999999"/>
      <point x="353" y="106" type="curve" smooth="yes"/>
      <point x="353" y="34"/>
      <point x="259" y="34"/>
      <point x="237" y="34" type="curve" smooth="yes"/>
      <point x="186" y="34"/>
      <point x="121" y="47"/>
      <point x="92" y="139" type="curve" smooth="yes"/>
      <point x="87" y="156"/>
      <point x="86" y="159"/>
      <point x="65" y="159" type="curve" smooth="yes"/>
      <point x="39" y="159"/>
      <point x="39" y="153"/>
      <point x="39" y="129" type="curve" smooth="yes"/>
      <point x="39" y="23" type="line" smooth="yes"/>
      <point x="39" y="5"/>
      <point x="39" y="-6"/>
      <point x="59" y="-6" type="curve" smooth="yes"/>
      <point x="66" y="-6"/>
      <point x="68" y="-6"/>
      <point x="90" y="8" type="curve" smooth="yes"/>
      <point x="117" y="25" type="line"/>
      <point x="164" y="-6"/>
      <point x="217" y="-6"/>
      <point x="237" y="-6" type="curve" smooth="yes"/>
      <point x="267" y="-6"/>
      <point x="427" y="-6"/>
    </contour>
  </outline>
</glyph>
<glyph name="x" format="2">
  <advance width="624"/>
  <unicode hex="0078"/>
  <outline>
    <contour>
      <point x="358" y="245" type="line"/>
      <point x="480" y="376" type="line" smooth="yes"/>
      <point x="491" y="388"/>
      <point x="498" y="395"/>
      <point x="578" y="395" type="curve"/>
      <point x="578" y="444" type="line"/>
      <point x="544" y="441"/>
      <point x="518" y="441"/>
      <point x="485" y="441" type="curve" smooth="yes"/>
      <point x="467" y="441"/>
      <point x="428" y="441"/>
      <point x="383" y="444" type="curve"/>
      <point x="383" y="395" type="line"/>
      <point x="405" y="395"/>
      <point x="410" y="391"/>
      <point x="417" y="384" type="curve"/>
      <point x="324" y="283" type="line"/>
      <point x="225" y="395" type="line"/>
      <point x="261" y="395" type="line"/>
      <point x="261" y="444" type="line"/>
      <point x="201" y="442"/>
      <point x="175" y="441"/>
      <point x="141" y="441" type="curve" smooth="yes"/>
      <point x="121" y="441"/>
      <point x="82" y="441"/>
      <point x="31" y="444" type="curve"/>
      <point x="31" y="395" type="line"/>
      <point x="101" y="395" type="line"/>
      <point x="260" y="214" type="line"/>
      <point x="125" y="68" type="line" smooth="yes"/>
      <point x="107" y="49"/>
      <point x="72" y="49"/>
      <point x="26" y="49" type="curve"/>
      <point x="26" y="0" type="line"/>
      <point x="60" y="3"/>
      <point x="86" y="3"/>
      <point x="119" y="3" type="curve" smooth="yes"/>
      <point x="137" y="3"/>
      <point x="176" y="3"/>
      <point x="221" y="0" type="curve"/>
      <point x="221" y="49" type="line"/>
      <point x="206" y="49"/>
      <point x="189" y="53"/>
      <point x="189" y="60" type="curve" smooth="yes"/>
      <point x="189" y="64"/>
      <point x="195" y="70"/>
      <point x="196" y="71" type="curve" smooth="yes"/>
      <point x="294" y="176" type="line"/>
      <point x="405" y="49" type="line"/>
      <point x="370" y="49" type="line"/>
      <point x="370" y="0" type="line"/>
      <point x="433" y="2"/>
      <point x="456" y="3"/>
      <point x="489" y="3" type="curve" smooth="yes"/>
      <point x="512" y="3"/>
      <point x="549" y="3"/>
      <point x="600" y="0" type="curve"/>
      <point x="600" y="49" type="line"/>
      <point x="530" y="49" type="line"/>
    </contour>
  </outline>
</glyph>
<glyph name="AE" format="2">
  <advance width="1071"/>
  <unicode hex="00C6"/>
  <outline>
    <contour>
      <point x="1037" y="276" type="line"/>
      <point x="986" y="276" type="line"/>
      <point x="964" y="150"/>
      <point x="946" y="49"/>
      <point x="763" y="49" type="curve" smooth="yes"/>
      <point x="631" y="49" type="line"/>
      <point x="631" y="306" type="line"/>
      <point x="695" y="306" type="line" smooth="yes"/>
      <point x="792" y="306"/>
      <point x="805" y="266"/>
      <point x="805" y="189" type="curve"/>
      <point x="856" y="189" type="line"/>
      <point x="856" y="472" type="line"/>
      <point x="805" y="472" type="line"/>
      <point x="805" y="395"/>
      <point x="793" y="355"/>
      <point x="695" y="355" type="curve" smooth="yes"/>
      <point x="631" y="355" type="line"/>
      <point x="631" y="637" type="line"/>
      <point x="759" y="637" type="line" smooth="yes"/>
      <point x="922" y="637"/>
      <point x="938" y="556"/>
      <point x="953" y="443" type="curve"/>
      <point x="1004" y="443" type="line"/>
      <point x="973" y="686" type="line"/>
      <point x="321" y="686" type="line"/>
      <point x="321" y="637" type="line"/>
      <point x="396" y="637" type="line"/>
      <point x="150" y="71" type="line" smooth="yes"/>
      <point x="144" y="57"/>
      <point x="143" y="55"/>
      <point x="117" y="52" type="curve" smooth="yes"/>
      <point x="93" y="49"/>
      <point x="92" y="49"/>
      <point x="64" y="49" type="curve" smooth="yes"/>
      <point x="43" y="49" type="line"/>
      <point x="43" y="0" type="line"/>
      <point x="99" y="2"/>
      <point x="112" y="3"/>
      <point x="165" y="3" type="curve" smooth="yes"/>
      <point x="210" y="3"/>
      <point x="254" y="2"/>
      <point x="299" y="0" type="curve"/>
      <point x="299" y="49" type="line"/>
      <point x="271" y="49"/>
      <point x="238" y="49"/>
      <point x="210" y="60" type="curve"/>
      <point x="316" y="306" type="line"/>
      <point x="495" y="306" type="line"/>
      <point x="495" y="49" type="line"/>
      <point x="414" y="49" type="line"/>
      <point x="414" y="0" type="line"/>
      <point x="990" y="0" type="line"/>
    </contour>
    <contour>
      <point x="460" y="637" type="line"/>
      <point x="495" y="637" type="line"/>
      <point x="495" y="355" type="line"/>
      <point x="338" y="355" type="line"/>
    </contour>
  </outline>
</glyph>
<glyph name="Oslash" format="2">
  <advance width="920"/>
  <unicode hex="00D8"/>
  <outline>
    <contour>
      <point x="758" y="722" type="line"/>
      <point x="723" y="747" type="line"/>
      <point x="659" y="658" type="line"/>
      <point x="580" y="693"/>
      <point x="506" y="698"/>
      <point x="460" y="698" type="curve" smooth="yes"/>
      <point x="200" y="698"/>
      <point x="66" y="536"/>
      <point x="66" y="339" type="curve" smooth="yes"/>
      <point x="66" y="234"/>
      <point x="108" y="118"/>
      <point x="221" y="48" type="curve"/>
      <point x="161" y="-36" type="line"/>
      <point x="196" y="-61" type="line"/>
      <point x="259" y="27" type="line"/>
      <point x="346" y="-10"/>
      <point x="422" y="-12"/>
      <point x="459" y="-12" type="curve" smooth="yes"/>
      <point x="717" y="-12"/>
      <point x="853" y="144"/>
      <point x="853" y="339" type="curve" smooth="yes"/>
      <point x="853" y="413"/>
      <point x="833" y="550"/>
      <point x="697" y="637" type="curve"/>
    </contour>
    <contour>
      <point x="460" y="28" type="curve" smooth="yes"/>
      <point x="373" y="28"/>
      <point x="320" y="60"/>
      <point x="296" y="78" type="curve"/>
      <point x="652" y="575" type="line"/>
      <point x="699" y="518"/>
      <point x="708" y="439"/>
      <point x="708" y="340" type="curve" smooth="yes"/>
      <point x="708" y="269"/>
      <point x="706" y="194"/>
      <point x="669" y="131" type="curve" smooth="yes"/>
      <point x="626" y="58"/>
      <point x="541" y="28"/>
    </contour>
    <contour>
      <point x="265" y="109" type="line"/>
      <point x="216" y="173"/>
      <point x="211" y="250"/>
      <point x="211" y="340" type="curve" smooth="yes"/>
      <point x="211" y="415"/>
      <point x="213" y="503"/>
      <point x="261" y="569" type="curve" smooth="yes"/>
      <point x="310" y="636"/>
      <point x="391" y="658"/>
      <point x="459" y="658" type="curve" smooth="yes"/>
      <point x="539" y="658"/>
      <point x="593" y="630"/>
      <point x="622" y="607" type="curve"/>
    </contour>
  </outline>
</glyph>
<glyph name="oslash" format="2">
  <advance width="591"/>
  <unicode hex="00F8"/>
  <outline>
    <contour>
      <point x="108" y="-108" type="line"/>
      <point x="184" y="11" type="line"/>
      <point x="235" y="-6"/>
      <point x="281" y="-6"/>
      <point x="295" y="-6" type="curve" smooth="yes"/>
      <point x="474" y="-6"/>
      <point x="558" y="99"/>
      <point x="558" y="218" type="curve" smooth="yes"/>
      <point x="558" y="262"/>
      <point x="547" y="362"/>
      <point x="444" y="418" type="curve"/>
      <point x="516" y="531" type="line"/>
      <point x="483" y="553" type="line"/>
      <point x="408" y="435" type="line"/>
      <point x="393" y="440"/>
      <point x="352" y="453"/>
      <point x="296" y="453" type="curve" smooth="yes"/>
      <point x="120" y="453"/>
      <point x="33" y="344"/>
      <point x="33" y="218" type="curve" smooth="yes"/>
      <point x="33" y="176"/>
      <point x="44" y="81"/>
      <point x="147" y="27" type="curve"/>
      <point x="75" y="-86" type="line"/>
    </contour>
    <contour>
      <point x="295" y="34" type="curve" smooth="yes"/>
      <point x="250" y="34"/>
      <point x="220" y="48"/>
      <point x="211" y="53" type="curve"/>
      <point x="411" y="365" type="line"/>
      <point x="441" y="326"/>
      <point x="441" y="268"/>
      <point x="441" y="219" type="curve" smooth="yes"/>
      <point x="441.0" y="170.712"/>
      <point x="441.0" y="107.91545190399998"/>
      <point x="402.03391981443485" y="69.30954493739006" type="curve" smooth="yes"/>
      <point x="380.47862794240007" y="47.953494015999965"/>
      <point x="346.9993600000001" y="33.99999999999996"/>
    </contour>
    <contour>
      <point x="180" y="80" type="line"/>
      <point x="151" y="117"/>
      <point x="150" y="161"/>
      <point x="150" y="219" type="curve" smooth="yes"/>
      <point x="150.0" y="268.31475"/>
      <point x="150.0" y="336.6527108396"/>
      <point x="191.50491923206542" y="377.6761987186174" type="curve" smooth="yes"/>
      <point x="213.1224723314" y="399.0430015929"/>
      <point x="245.99938" y="413.0"/>
      <point x="296" y="413" type="curve" smooth="yes"/>
      <point x="322" y="413"/>
      <point x="354" y="408"/>
      <point x="380" y="392" type="curve"/>
    </contour>
  </outline>
</glyph>
<glyph name="Lambda" format="2">
  <advance width="827"/>
  <unicode hex="039B"/>
  <outline>
    <contour>
      <point x="455" y="672" type="line" smooth="yes"/>
      <point x="447" y="692"/>
      <point x="444" y="700"/>
      <point x="413" y="700" type="curve" smooth="yes"/>
      <point x="388" y="700"/>
      <point x="380" y="696"/>
      <point x="371" y="673" type="curve" smooth="yes"/>
      <point x="136" y="72" type="line" smooth="yes"/>
      <point x="129" y="56"/>
      <point x="128" y="55"/>
      <point x="97" y="51" type="curve" smooth="yes"/>
      <point x="79" y="49"/>
      <point x="58" y="49"/>
      <point x="42" y="49" type="curve"/>
      <point x="42" y="0" type="line"/>
      <point x="93" y="3"/>
      <point x="132" y="3"/>
      <point x="155" y="3" type="curve" smooth="yes"/>
      <point x="211" y="3"/>
      <point x="244" y="2"/>
      <point x="286" y="0" type="curve"/>
      <point x="286" y="49" type="line"/>
      <point x="264" y="49"/>
      <point x="225" y="49"/>
      <point x="196" y="59" type="curve"/>
      <point x="197" y="64"/>
      <point x="197" y="66"/>
      <point x="201" y="74" type="curve"/>
      <point x="367" y="500" type="line"/>
      <point x="543" y="49" type="line"/>
      <point x="448" y="49" type="line"/>
      <point x="448" y="0" type="line"/>
      <point x="483" y="3"/>
      <point x="584" y="3"/>
      <point x="625" y="3" type="curve" smooth="yes"/>
      <point x="669" y="3"/>
      <point x="743" y="3"/>
      <point x="784" y="0" type="curve"/>
      <point x="784" y="49" type="line"/>
      <point x="698" y="49" type="line"/>
    </contour>
  </outline>
</glyph>
<glyph name="Upsilon" format="2">
  <advance width="920"/>
  <unicode hex="03A5"/>
  <outline>
    <contour>
      <point x="532" y="345" type="line" smooth="yes"/>
      <point x="532" y="383"/>
      <point x="539" y="453"/>
      <point x="575" y="509" type="curve" smooth="yes"/>
      <point x="620" y="580"/>
      <point x="674" y="580"/>
      <point x="707" y="580" type="curve" smooth="yes"/>
      <point x="789" y="580"/>
      <point x="792" y="564"/>
      <point x="794" y="547" type="curve" smooth="yes"/>
      <point x="797" y="529"/>
      <point x="811" y="529"/>
      <point x="823" y="529" type="curve" smooth="yes"/>
      <point x="838" y="529"/>
      <point x="853" y="529"/>
      <point x="853" y="553" type="curve" smooth="yes"/>
      <point x="853" y="621"/>
      <point x="791" y="698"/>
      <point x="693" y="698" type="curve" smooth="yes"/>
      <point x="551" y="698"/>
      <point x="479" y="560"/>
      <point x="460" y="469" type="curve"/>
      <point x="459" y="469" type="line"/>
      <point x="436" y="568"/>
      <point x="364" y="698"/>
      <point x="226" y="698" type="curve" smooth="yes"/>
      <point x="128" y="698"/>
      <point x="66" y="621"/>
      <point x="66" y="553" type="curve" smooth="yes"/>
      <point x="66" y="529"/>
      <point x="81" y="529"/>
      <point x="96" y="529" type="curve" smooth="yes"/>
      <point x="121" y="529"/>
      <point x="122" y="536"/>
      <point x="125" y="552" type="curve" smooth="yes"/>
      <point x="130" y="576"/>
      <point x="164" y="580"/>
      <point x="212" y="580" type="curve" smooth="yes"/>
      <point x="245" y="580"/>
      <point x="306" y="580"/>
      <point x="352" y="496" type="curve" smooth="yes"/>
      <point x="376" y="451"/>
      <point x="387" y="393"/>
      <point x="387" y="345" type="curve" smooth="yes"/>
      <point x="387" y="49" type="line"/>
      <point x="252" y="49" type="line"/>
      <point x="252" y="0" type="line"/>
      <point x="293" y="3"/>
      <point x="411" y="3"/>
      <point x="459" y="3" type="curve" smooth="yes"/>
      <point x="507" y="3"/>
      <point x="626" y="3"/>
      <point x="667" y="0" type="curve"/>
      <point x="667" y="49" type="line"/>
      <point x="532" y="49" type="line"/>
    </contour>
  </outline>
</glyph>
<glyph name="quoteleft" format="2">
  <advance width="328"/>
  <unicode hex="2018"/>
  <outline>
    <contour>
      <point x="111" y="481" type="curve"/>
      <point x="115" y="556"/>
      <point x="151" y="615"/>
      <point x="206" y="657" type="curve" smooth="yes"/>
      <point x="211" y="661"/>
      <point x="216" y="664"/>
      <point x="216" y="672" type="curve" smooth="yes"/>
      <point x="216" y="682"/>
      <point x="204" y="694"/>
      <point x="194" y="694" type="curve" smooth="yes"/>
      <point x="179" y="694"/>
      <point x="70" y="609"/>
      <point x="70" y="469" type="curve" smooth="yes"/>
      <point x="70" y="398"/>
      <point x="108" y="343"/>
      <point x="165" y="343" type="curve" smooth="yes"/>
      <point x="215" y="343"/>
      <point x="243" y="382"/>
      <point x="243" y="421" type="curve" smooth="yes"/>
      <point x="243" y="461"/>
      <point x="216" y="500"/>
      <point x="164" y="500" type="curve" smooth="yes"/>
      <point x="132" y="500"/>
      <point x="113" y="483"/>
    </contour>
  </outline>
</glyph>
